<mxfile host="app.diagrams.net" modified="2023-12-04T19:02:27.265Z" agent="Mozilla/5.0 (Windows NT 10.0; Win64; x64) AppleWebKit/537.36 (KHTML, like Gecko) Chrome/119.0.0.0 Safari/537.36" etag="hxnVJTNKnu0BWD09b_C2" version="22.1.5" type="onedrive">
  <diagram name="Page-1" id="zMXfdLivzt5tlgZJ6WOi">
    <mxGraphModel grid="1" page="1" gridSize="10" guides="1" tooltips="1" connect="1" arrows="1" fold="1" pageScale="1" pageWidth="827" pageHeight="1169" math="0" shadow="0">
      <root>
        <mxCell id="0" />
        <mxCell id="1" parent="0" />
        <mxCell id="cc103s8nBry4_oYBITUL-1" value="Electronic IDS" style="rounded=1;whiteSpace=wrap;html=1;" vertex="1" parent="1">
          <mxGeometry x="90" y="170" width="150" height="40" as="geometry" />
        </mxCell>
        <mxCell id="cc103s8nBry4_oYBITUL-3" value="Smart Survillence System" style="rounded=1;whiteSpace=wrap;html=1;" vertex="1" parent="1">
          <mxGeometry x="380" y="170" width="150" height="40" as="geometry" />
        </mxCell>
        <mxCell id="cc103s8nBry4_oYBITUL-4" value="Smart city lightning" style="rounded=1;whiteSpace=wrap;html=1;" vertex="1" parent="1">
          <mxGeometry x="660" y="170" width="150" height="40" as="geometry" />
        </mxCell>
        <mxCell id="cc103s8nBry4_oYBITUL-5" value="&lt;h1 style=&quot;line-height: 100%;&quot;&gt;&lt;br&gt;&lt;/h1&gt;- Unique ID for each citizen&lt;br&gt;&lt;br&gt;- Personal information (EX: Photo, birthday, residental address....ect)&lt;br&gt;&lt;br&gt;- include biometric data of citizen&lt;br&gt;&lt;br&gt;&lt;div style=&quot;line-height: 100%;&quot;&gt;&lt;span style=&quot;font-size: 12px; font-weight: 400;&quot;&gt;- Integration with Public Transport System (Ex Semester Ticket)&lt;/span&gt;&lt;/div&gt;&lt;div style=&quot;line-height: 100%;&quot;&gt;&lt;span style=&quot;font-size: 12px; font-weight: 400;&quot;&gt;- Validity Period of ID&lt;/span&gt;&lt;/div&gt;&lt;div style=&quot;line-height: 100%;&quot;&gt;&lt;span style=&quot;font-size: 12px; font-weight: 400;&quot;&gt;&lt;br&gt;&lt;/span&gt;&lt;/div&gt;&lt;div style=&quot;line-height: 100%;&quot;&gt;&lt;span style=&quot;font-size: 12px; font-weight: 400;&quot;&gt;- citizen is able to navigate all forms of public transportation within the city using electronic ID&lt;/span&gt;&lt;/div&gt;&lt;div style=&quot;line-height: 100%;&quot;&gt;&lt;span style=&quot;font-size: 12px; font-weight: 400;&quot;&gt;&lt;br&gt;&lt;/span&gt;&lt;/div&gt;&lt;div style=&quot;line-height: 100%;&quot;&gt;&lt;span style=&quot;font-size: 12px; font-weight: 400;&quot;&gt;- citizen is able to access restricted ares and events they have access to with this ID&lt;/span&gt;&lt;/div&gt;&lt;div style=&quot;line-height: 100%;&quot;&gt;&lt;span style=&quot;font-size: 12px; font-weight: 400;&quot;&gt;&lt;br&gt;&lt;/span&gt;&lt;/div&gt;&lt;div style=&quot;line-height: 100%;&quot;&gt;&lt;span style=&quot;font-size: 12px; font-weight: 400;&quot;&gt;- this id can integrate with third party services&lt;/span&gt;&lt;/div&gt;&lt;div style=&quot;line-height: 100%;&quot;&gt;&lt;span style=&quot;font-size: 12px; font-weight: 400;&quot;&gt;- this id allows citizen to easily access government resources and services&lt;/span&gt;&lt;/div&gt;" style="text;html=1;strokeColor=none;fillColor=none;spacing=5;spacingTop=-20;whiteSpace=wrap;overflow=hidden;rounded=0;" vertex="1" parent="1">
          <mxGeometry x="100" y="220" width="170" height="450" as="geometry" />
        </mxCell>
        <mxCell id="MAaIm83J6cETwRya9UBG-2" value="&lt;br&gt;- Detection of presence of persons/cars to switch on street lights when needed&lt;br&gt;&lt;br&gt;- Setting the brightness of the street lights to an appropriate level (taking sunlight or external light sources into consideration)&lt;br&gt;&lt;br&gt;- Logging and transmitting data of the energy consumption, the activity and failing lights" style="text;html=1;strokeColor=none;fillColor=none;spacing=5;spacingTop=-20;whiteSpace=wrap;overflow=hidden;rounded=0;" vertex="1" parent="1">
          <mxGeometry x="660" y="230" width="160" height="240" as="geometry" />
        </mxCell>
        <mxCell id="cc103s8nBry4_oYBITUL-6" value="&lt;h1 style=&quot;line-height: 100%;&quot;&gt;&lt;br&gt;&lt;/h1&gt;&lt;div&gt;- Face recognition cameras&lt;/div&gt;&lt;div&gt;&lt;br&gt;&lt;/div&gt;&lt;div&gt;- System Integration with Face recognition and electronic ID&#39;s&lt;/div&gt;&lt;div&gt;&lt;br&gt;&lt;/div&gt;&lt;div&gt;- Monitor busy areas to detect possible crime&lt;/div&gt;&lt;div&gt;&lt;br&gt;&lt;/div&gt;&lt;div&gt;- Use surveillance infrastructure to look for criminals&lt;/div&gt;" style="text;html=1;strokeColor=none;fillColor=none;spacing=5;spacingTop=-20;whiteSpace=wrap;overflow=hidden;rounded=0;" vertex="1" parent="1">
          <mxGeometry x="370" y="220" width="190" height="240" as="geometry" />
        </mxCell>
        <mxCell id="HlGmot_Mcggu2mXiajB9-1" value="&lt;h1 style=&quot;line-height: 100%;&quot;&gt;&lt;br&gt;&lt;/h1&gt;- Every citizen should have a valid and unique ID issued by the governments. This issued ID may be added to an electronic form, restricting one per citizen.&lt;br&gt;&lt;br&gt;- Every government issued ID must have the personal information of the citizen. This information can be for example:&lt;br&gt;&lt;span style=&quot;white-space: pre;&quot;&gt;&#x9;&lt;/span&gt;*Biometric Photo.&lt;br&gt;&lt;span style=&quot;white-space: pre;&quot;&gt;&#x9;&lt;/span&gt;*Date of birth.&lt;br&gt;&lt;span style=&quot;white-space: pre;&quot;&gt;&#x9;&lt;/span&gt;*Nationality.&lt;br&gt;&lt;span style=&quot;white-space: pre;&quot;&gt;&#x9;&lt;/span&gt;*Etc.&lt;br&gt;&lt;br&gt;&lt;div style=&quot;line-height: 100%;&quot;&gt;&lt;span style=&quot;font-size: 12px; font-weight: 400;&quot;&gt;- Each electronic ID may be linked to the system to interact with it.&lt;/span&gt;&lt;/div&gt;&lt;div style=&quot;line-height: 100%;&quot;&gt;&lt;span style=&quot;font-size: 12px; font-weight: 400;&quot;&gt;&lt;br&gt;&lt;/span&gt;&lt;/div&gt;&lt;div style=&quot;line-height: 100%;&quot;&gt;&lt;span style=&quot;font-size: 12px; font-weight: 400;&quot;&gt;- Each citizen must have an electronic ID to interact with the public transportation system.&lt;/span&gt;&lt;/div&gt;&lt;div style=&quot;line-height: 100%;&quot;&gt;&lt;br&gt;&lt;/div&gt;" style="text;html=1;strokeColor=none;fillColor=none;spacing=5;spacingTop=-20;whiteSpace=wrap;overflow=hidden;rounded=0;" vertex="1" parent="1">
          <mxGeometry x="-80" y="220" width="170" height="450" as="geometry" />
        </mxCell>
        <mxCell id="MAaIm83J6cETwRya9UBG-3" value="&lt;br&gt;-Detectors at the pole of the street light should detect the presence of persons and cars in the area of the light source.&lt;br&gt;&lt;br&gt;-The light should be turned on for x minutes when a person or a car gets detected.&lt;br&gt;&lt;br&gt;-The system should measure the brightness of the environment and adjust the brightness of its own light source.&lt;br&gt;&lt;br&gt;-The system should log the energy consumption, the amount of detected persons and cars and the events of a failing light source.&lt;br&gt;&lt;br&gt;-The system should transmit the log to a data aggregator every x hours." style="text;html=1;strokeColor=none;fillColor=none;spacing=5;spacingTop=-20;whiteSpace=wrap;overflow=hidden;rounded=0;" vertex="1" parent="1">
          <mxGeometry x="840" y="230" width="190" height="320" as="geometry" />
        </mxCell>
      </root>
    </mxGraphModel>
  </diagram>
</mxfile>
